<svg width="500" height="500" viewBox="0 0 500 500" fill="none" xmlns="http://www.w3.org/2000/svg">
<rect width="500" height="500" rx="91" fill="#1E48DB"/>
<path d="M59 289.821C56.7909 289.821 55 288.03 55 285.821V126.746C55 124.537 56.7909 122.746 59 122.746H134.106C152.588 122.746 168.84 126.167 182.86 133.009C196.881 139.851 207.795 149.478 215.602 161.889C223.569 174.3 227.552 189.098 227.552 206.283C227.552 223.309 223.569 238.107 215.602 250.677C207.795 263.089 196.881 272.715 182.86 279.557C168.84 286.399 152.588 289.821 134.106 289.821H59ZM102.32 248.109C102.32 250.319 104.111 252.109 106.32 252.109H132.194C141.754 252.109 150.039 250.359 157.049 246.858C164.219 243.199 169.796 237.948 173.779 231.106C177.762 224.104 179.754 215.83 179.754 206.283C179.754 196.577 177.762 188.303 173.779 181.461C169.796 174.618 164.219 169.447 157.049 165.946C150.039 162.287 141.754 160.457 132.194 160.457H106.32C104.111 160.457 102.32 162.248 102.32 164.457V248.109Z" fill="white"/>
<path d="M233.02 240.611C232.617 241.544 232.556 242.592 232.878 243.555L247.201 286.345C247.747 287.975 249.274 289.075 250.994 289.075H270.83C272.539 289.075 274.059 287.989 274.614 286.372L315.653 166.614C316.889 163.006 321.992 163.01 323.223 166.619L364.058 286.366C364.611 287.986 366.132 289.075 367.844 289.075H387.197C388.917 289.075 390.444 287.975 390.99 286.345L444.236 127.27C445.103 124.679 443.175 122 440.443 122H426.166C424.451 122 422.926 123.094 422.377 124.72L380.96 247.29C379.735 250.916 374.606 250.916 373.381 247.29L331.964 124.72C331.415 123.094 329.89 122 328.174 122H311.907C310.202 122 308.684 123.081 308.127 124.693L265.94 246.744C264.691 250.356 259.573 250.327 258.364 246.701L238.642 187.52C238.591 187.367 238.448 187.264 238.286 187.264V187.264C238.049 187.264 237.872 187.481 237.918 187.713C239.07 193.558 239.646 199.748 239.646 206.283C239.646 218.961 237.437 230.404 233.02 240.611Z" fill="white"/>
<path d="M76.1283 377C71.8197 377 67.7322 376.312 63.8656 374.936C60.616 373.718 57.9888 372.212 55.984 370.417C55.3821 369.878 55.3019 368.982 55.7335 368.299V368.299C56.3361 367.345 57.6678 367.193 58.5621 367.881C60.3173 369.231 62.4718 370.418 65.0256 371.444C68.5055 372.767 72.1788 373.428 76.0454 373.428C79.912 373.428 83.0605 372.952 85.491 372C87.9766 370.994 89.7995 369.672 90.9595 368.031C92.1747 366.391 92.7823 364.566 92.7823 362.555C92.7823 360.174 92.1194 358.269 90.7937 356.84C89.4681 355.412 87.7281 354.274 85.5738 353.427C83.4196 352.581 81.072 351.866 78.5311 351.284C75.9902 350.702 73.4216 350.094 70.8255 349.459C68.2293 348.771 65.8541 347.898 63.6999 346.84C61.5456 345.781 59.8056 344.353 58.4799 342.554C57.2095 340.702 56.5743 338.321 56.5743 335.411C56.5743 332.765 57.2923 330.331 58.7285 328.109C60.1647 325.886 62.4018 324.087 65.4398 322.712C68.4779 321.336 72.3721 320.648 77.1225 320.648C80.3263 320.648 83.4748 321.098 86.5681 321.997C89.1205 322.726 91.3644 323.664 93.2997 324.811C94.0683 325.266 94.3186 326.241 93.9296 327.045V327.045C93.4529 328.03 92.2211 328.367 91.2619 327.84C89.34 326.785 87.3059 325.974 85.1595 325.41C82.3977 324.616 79.7187 324.22 77.1225 324.22C73.4216 324.22 70.356 324.722 67.9255 325.728C65.4951 326.733 63.6999 328.082 62.5399 329.775C61.3799 331.416 60.7999 333.268 60.7999 335.331C60.7999 337.712 61.4351 339.617 62.7056 341.046C64.0313 342.474 65.7713 343.612 67.9255 344.459C70.0798 345.305 72.455 346.02 75.0511 346.602C77.6473 347.184 80.2158 347.819 82.7567 348.507C85.2976 349.141 87.6452 349.988 89.7995 351.046C91.9537 352.105 93.6937 353.533 95.0194 355.332C96.3451 357.131 97.0079 359.459 97.0079 362.317C97.0079 364.909 96.2622 367.343 94.7708 369.619C93.2794 371.841 90.9871 373.64 87.8938 375.016C84.8557 376.339 80.9339 377 76.1283 377Z" fill="white"/>
<path d="M152.203 377C148.392 377 145.464 375.995 143.42 373.984C141.432 371.973 140.437 369.222 140.437 365.73V328.275C140.437 327.131 141.365 326.204 142.509 326.204V326.204C143.653 326.204 144.58 327.131 144.58 328.275V365.333C144.58 367.978 145.271 370.016 146.652 371.444C148.033 372.873 150.021 373.587 152.617 373.587C154.58 373.587 156.295 373.184 157.764 372.377C158.644 371.894 159.81 372.054 160.343 372.905V372.905C160.763 373.576 160.65 374.464 159.994 374.906C159.12 375.494 158.124 375.954 157.009 376.286C155.462 376.762 153.86 377 152.203 377ZM134.19 338.665C133.247 338.665 132.483 337.901 132.483 336.958V336.958C132.483 336.016 133.247 335.252 134.19 335.252H156.628C157.57 335.252 158.334 336.016 158.334 336.958V336.958C158.334 337.901 157.57 338.665 156.628 338.665H134.19Z" fill="white"/>
<path d="M214.606 377C210.906 377 207.702 376.365 204.995 375.095C202.289 373.772 200.189 371.815 198.698 369.222C197.262 366.576 196.544 363.322 196.544 359.459V337.323C196.544 336.179 197.471 335.252 198.615 335.252V335.252C199.759 335.252 200.687 336.179 200.687 337.323V359.142C200.687 363.798 201.929 367.343 204.415 369.777C206.901 372.211 210.408 373.428 214.938 373.428C218.197 373.428 221.014 372.767 223.389 371.444C225.764 370.121 227.587 368.269 228.858 365.888C230.128 363.454 230.763 360.597 230.763 357.316V337.323C230.763 336.179 231.691 335.252 232.835 335.252V335.252C233.979 335.252 234.906 336.179 234.906 337.323V374.694C234.906 375.792 234.004 376.683 232.905 376.683V376.683C231.821 376.683 230.929 375.803 230.929 374.718V366.528C230.929 366.225 231.344 366.14 231.464 366.418V366.418C231.493 366.485 231.494 366.562 231.467 366.63C230.191 369.808 228.079 372.338 225.129 374.222C222.202 376.074 218.694 377 214.606 377Z" fill="white"/>
<path d="M291.758 377C287.726 377 284.08 376.127 280.821 374.381C277.617 372.582 275.077 370.095 273.199 366.92C271.32 363.745 270.381 360.094 270.381 355.967C270.381 351.787 271.32 348.136 273.199 345.014C275.077 341.839 277.617 339.379 280.821 337.633C284.08 335.834 287.726 334.934 291.758 334.934C295.57 334.934 298.994 335.781 302.032 337.474C305.126 339.167 307.556 341.575 309.324 344.697C311.147 347.819 312.058 351.575 312.058 355.967C312.058 360.253 311.174 363.983 309.407 367.158C307.639 370.333 305.208 372.767 302.115 374.46C299.077 376.153 295.625 377 291.758 377ZM292.007 373.428C295.321 373.428 298.276 372.714 300.872 371.285C303.524 369.804 305.595 367.74 307.087 365.095C308.633 362.449 309.407 359.407 309.407 355.967C309.407 352.475 308.633 349.432 307.087 346.84C305.595 344.194 303.524 342.157 300.872 340.728C298.276 339.247 295.321 338.506 292.007 338.506C288.693 338.506 285.71 339.247 283.058 340.728C280.462 342.157 278.391 344.194 276.844 346.84C275.353 349.432 274.607 352.475 274.607 355.967C274.607 359.407 275.353 362.449 276.844 365.095C278.391 367.74 280.462 369.804 283.058 371.285C285.71 372.714 288.693 373.428 292.007 373.428ZM311.519 376.683C310.398 376.683 309.489 375.774 309.489 374.653V363.11L310.19 356.321C310.22 356.033 310.218 355.743 310.185 355.455L309.407 348.665V319.862C309.407 318.718 310.334 317.791 311.478 317.791V317.791C312.622 317.791 313.549 318.718 313.549 319.862V374.653C313.549 375.774 312.64 376.683 311.519 376.683V376.683Z" fill="white"/>
<path d="M352.422 377C351.278 377 350.35 376.073 350.35 374.929V337.641C350.35 336.497 351.278 335.569 352.422 335.569V335.569C353.566 335.569 354.493 336.497 354.493 337.641V374.929C354.493 376.073 353.566 377 352.422 377V377ZM352.422 325.489C351.483 325.489 350.682 325.172 350.019 324.537C349.356 323.902 349.025 323.161 349.025 322.315C349.025 321.415 349.356 320.648 350.019 320.013C350.682 319.378 351.483 319.061 352.422 319.061C353.416 319.061 354.217 319.378 354.825 320.013C355.487 320.595 355.819 321.336 355.819 322.235C355.819 323.135 355.487 323.902 354.825 324.537C354.217 325.172 353.416 325.489 352.422 325.489Z" fill="white"/>
<path d="M412.919 377C408.777 377 405.076 376.101 401.817 374.301C398.613 372.502 396.045 370.016 394.111 366.841C392.233 363.666 391.294 360.041 391.294 355.967C391.294 351.84 392.233 348.215 394.111 345.094C396.045 341.919 398.613 339.432 401.817 337.633C405.076 335.834 408.777 334.934 412.919 334.934C417.062 334.934 420.763 335.834 424.022 337.633C427.281 339.432 429.85 341.919 431.728 345.094C433.606 348.215 434.545 351.84 434.545 355.967C434.545 360.041 433.606 363.666 431.728 366.841C429.85 370.016 427.281 372.502 424.022 374.301C420.763 376.101 417.062 377 412.919 377ZM412.919 373.428C416.234 373.428 419.217 372.714 421.868 371.285C424.519 369.804 426.591 367.74 428.082 365.095C429.574 362.449 430.319 359.407 430.319 355.967C430.319 352.475 429.574 349.432 428.082 346.84C426.591 344.194 424.519 342.157 421.868 340.728C419.217 339.247 416.234 338.506 412.919 338.506C409.605 338.506 406.622 339.247 403.971 340.728C401.375 342.157 399.304 344.194 397.757 346.84C396.265 349.432 395.52 352.475 395.52 355.967C395.52 359.407 396.265 362.449 397.757 365.095C399.304 367.74 401.375 369.804 403.971 371.285C406.622 372.714 409.605 373.428 412.919 373.428Z" fill="white"/>
</svg>
