<svg width="150" height="129" viewBox="0 0 150 129" fill="none" xmlns="http://www.w3.org/2000/svg">
<path d="M8.75265 128.777C0.360228 128.777 0.474398 122.051 0.474416 119.12V19.6083C0.244468 17.4238 1.47471 13.0547 8.23526 13.0547H29.1033V37.7169H142.757C145.171 37.487 150 38.8207 150 45.9951V128.777H8.75265Z" fill="url(#paint0_radial_697_17)"/>
<path d="M20.4802 119.119V84.2818V44.6153C20.4227 42.3158 22.0668 37.7168 29.1033 37.7168V6.32851C29.2183 4.20146 30.552 0.0163569 34.9671 0.292298C39.3821 0.568239 102.458 0.407273 133.444 0.292298C135.801 0.349789 140.549 1.49955 140.687 5.63866C140.825 9.77778 140.744 28.7487 140.687 37.7168H142.757C145.171 37.4868 150 38.8206 150 45.995V128.777H8.75269C17.3758 128.777 20.0203 122.914 20.4802 119.119Z" fill="url(#paint1_linear_697_17)" fill-opacity="0.75"/>
<rect x="30.8025" y="46.8442" width="25.8695" height="5.17389" rx="2.58695" fill="#B7C5F5"/>
<rect x="30.8025" y="55.4675" width="35.5274" height="5.17389" rx="2.58695" fill="#B7C5F5"/>
<rect x="30.8025" y="99.2732" width="35.5274" height="18.626" rx="9.31301" fill="#B7C5F5"/>
<path d="M135.906 104.106C135.906 103.792 135.893 103.492 135.865 103.177L138.388 101.252C138.931 100.842 139.08 100.077 138.741 99.4759L136.205 95.0641C136.042 94.7748 135.779 94.5562 135.466 94.4503C135.153 94.3444 134.812 94.3587 134.509 94.4904L131.593 95.7334C131.091 95.3782 130.562 95.0641 130.006 94.8046L129.613 91.6494C129.531 90.9664 128.948 90.4474 128.27 90.4474H123.211C122.519 90.4474 121.936 90.9664 121.855 91.6494L121.461 94.8046C120.905 95.0641 120.376 95.3782 119.874 95.7334L116.958 94.4904C116.334 94.2172 115.602 94.4631 115.263 95.0641L112.727 99.4896C112.388 100.091 112.537 100.842 113.079 101.265L115.602 103.191C115.546 103.804 115.546 104.422 115.602 105.035L113.079 106.961C112.537 107.371 112.388 108.136 112.727 108.737L115.263 113.148C115.602 113.749 116.334 113.995 116.958 113.722L119.874 112.479C120.376 112.834 120.905 113.148 121.461 113.408L121.855 116.563C121.936 117.246 122.519 117.765 123.197 117.765H128.257C128.935 117.765 129.518 117.246 129.599 116.563L129.993 113.408C130.549 113.148 131.078 112.834 131.58 112.479L134.496 113.722C135.119 113.995 135.852 113.749 136.191 113.148L138.727 108.737C139.066 108.136 138.917 107.384 138.375 106.961L135.852 105.035C135.893 104.721 135.906 104.42 135.906 104.106ZM125.788 108.887C123.17 108.887 121.041 106.742 121.041 104.106C121.041 101.47 123.17 99.3257 125.788 99.3257C128.406 99.3257 130.535 101.47 130.535 104.106C130.535 106.742 128.406 108.887 125.788 108.887Z" fill="#A5B6F3"/>
<path d="M110.435 23.0306C110.435 26.2977 107.83 28.439 103.702 28.439C99.5737 28.439 96.9247 26.2536 96.6377 22.7436H100.854C100.898 24.2447 101.892 25.194 103.613 25.194C105.048 25.194 105.998 24.6421 105.998 23.6487C105.998 22.9644 105.313 22.4566 104.386 22.28L101.494 21.7282C98.9556 21.2425 97.2779 19.7635 97.2779 17.2027C97.2779 14.2446 99.8828 12.1696 103.437 12.1696C107.212 12.1696 109.927 14.3329 110.17 17.7546H105.953C105.843 16.3197 104.872 15.3925 103.481 15.3925C102.245 15.3925 101.494 16.0548 101.494 16.9157C101.494 17.6222 102.201 18.0416 103.04 18.1961L106.108 18.7921C108.934 19.344 110.435 20.7348 110.435 23.0306Z" fill="#A0B5FF"/>
<path d="M81.7973 28.2182L78.3977 19.0791V28.2182H74.6228V12.3682H79.5456L83.5412 23.1188L87.5148 12.3682H92.4376V28.2182H88.6627V18.9687L85.241 28.2182H81.7973Z" fill="#A0B5FF"/>
<path d="M62.0404 28.5494C57.537 28.5494 53.9829 24.9291 53.9829 20.2712C53.9829 15.6354 57.537 12.0371 62.0404 12.0371C66.3892 12.0371 69.7447 14.929 70.2524 19.1233H65.8373C65.5062 17.1365 64.0272 15.7678 62.0845 15.7678C59.7446 15.7678 58.2655 17.578 58.2655 20.2712C58.2655 22.9864 59.7446 24.8187 62.0845 24.8187C64.0051 24.8187 65.4841 23.45 65.8373 21.4412H70.2524C69.7226 25.6796 66.3892 28.5494 62.0404 28.5494Z" fill="#A0B5FF"/>
<defs>
<radialGradient id="paint0_radial_697_17" cx="0" cy="0" r="1" gradientUnits="userSpaceOnUse" gradientTransform="translate(-2.12143 70.9161) rotate(90.1322) scale(50.6288 64.4299)">
<stop stop-color="#A0B5FF"/>
<stop offset="1" stop-color="#E2E8FF"/>
</radialGradient>
<linearGradient id="paint1_linear_697_17" x1="80.3249" y1="-74.5567" x2="81.7046" y2="37.1994" gradientUnits="userSpaceOnUse">
<stop stop-color="#1E48DB"/>
<stop offset="1" stop-color="#DEE5FF"/>
</linearGradient>
</defs>
</svg>
