<svg width="120" height="34" viewBox="0 0 120 34" fill="none" xmlns="http://www.w3.org/2000/svg">
<path d="M114.401 19.4428C113.325 19.4428 112.298 19.2961 111.32 19.0026C110.358 18.7092 109.6 18.3506 109.046 17.9268L110.024 16.0686C110.578 16.4435 111.263 16.7613 112.078 17.0222C112.893 17.283 113.724 17.4134 114.572 17.4134C115.664 17.4134 116.447 17.2585 116.919 16.9488C117.408 16.6391 117.653 16.2071 117.653 15.6529C117.653 15.2454 117.506 14.9276 117.213 14.6993C116.919 14.4711 116.528 14.3 116.039 14.1859C115.566 14.0718 115.037 13.974 114.45 13.8925C113.863 13.7947 113.276 13.6806 112.689 13.5502C112.102 13.4035 111.565 13.2079 111.076 12.9634C110.587 12.7025 110.195 12.3521 109.902 11.912C109.609 11.4556 109.462 10.8525 109.462 10.1026C109.462 9.32022 109.682 8.6356 110.122 8.04879C110.562 7.46197 111.181 7.01371 111.98 6.70401C112.795 6.378 113.757 6.215 114.865 6.215C115.713 6.215 116.569 6.32095 117.433 6.53285C118.313 6.72846 119.03 7.01371 119.584 7.38862L118.582 9.24687C117.995 8.85566 117.384 8.5867 116.748 8.44C116.112 8.2933 115.477 8.21994 114.841 8.21994C113.814 8.21994 113.048 8.3911 112.543 8.7334C112.037 9.05941 111.785 9.48322 111.785 10.0048C111.785 10.4449 111.931 10.7873 112.225 11.0318C112.534 11.26 112.926 11.4393 113.398 11.5697C113.887 11.7001 114.425 11.8142 115.012 11.912C115.599 11.9935 116.186 12.1076 116.773 12.2543C117.359 12.3847 117.889 12.5721 118.362 12.8167C118.851 13.0612 119.242 13.4035 119.535 13.8436C119.845 14.2837 120 14.8705 120 15.604C120 16.3864 119.772 17.0629 119.315 17.6334C118.859 18.2039 118.215 18.6522 117.384 18.9782C116.552 19.2879 115.558 19.4428 114.401 19.4428Z" fill="#404040"/>
<path d="M97.9306 16.1664L97.9795 13.1589L105.437 6.33724H108.273L102.552 11.9609L101.28 13.0367L97.9306 16.1664ZM96.0234 19.296V1.15372H98.3707V19.296H96.0234ZM105.926 19.296L100.84 12.9878L102.356 11.1051L108.811 19.296H105.926Z" fill="#404040"/>
<path d="M86.1621 19.2961V6.33725H88.4116V9.85813L88.1915 8.97791C88.5501 8.08139 89.1532 7.39677 90.0009 6.92406C90.8485 6.45135 91.8917 6.215 93.1305 6.215V8.4889C93.0327 8.4726 92.9349 8.46445 92.8371 8.46445C92.7556 8.46445 92.6741 8.46445 92.5926 8.46445C91.3375 8.46445 90.3432 8.83936 89.6096 9.58918C88.8761 10.339 88.5094 11.423 88.5094 12.8411V19.2961H86.1621Z" fill="#404040"/>
<path d="M76.192 19.4428C74.8879 19.4428 73.7306 19.1575 72.72 18.587C71.7094 18.0165 70.9106 17.2341 70.3238 16.2397C69.737 15.2291 69.4436 14.0881 69.4436 12.8167C69.4436 11.5289 69.737 10.3879 70.3238 9.39357C70.9106 8.39925 71.7094 7.62498 72.72 7.07077C73.7306 6.50025 74.8879 6.215 76.192 6.215C77.4797 6.215 78.6289 6.50025 79.6395 7.07077C80.6664 7.62498 81.4651 8.39925 82.0357 9.39357C82.6225 10.3716 82.9159 11.5126 82.9159 12.8167C82.9159 14.1044 82.6225 15.2454 82.0357 16.2397C81.4651 17.2341 80.6664 18.0165 79.6395 18.587C78.6289 19.1575 77.4797 19.4428 76.192 19.4428ZM76.192 17.3889C77.0233 17.3889 77.7649 17.2015 78.417 16.8265C79.0853 16.4516 79.6069 15.9219 79.9818 15.2373C80.3567 14.5363 80.5442 13.7295 80.5442 12.8167C80.5442 11.8875 80.3567 11.0888 79.9818 10.4205C79.6069 9.73588 79.0853 9.20612 78.417 8.83121C77.7649 8.4563 77.0233 8.26884 76.192 8.26884C75.3606 8.26884 74.619 8.4563 73.967 8.83121C73.3149 9.20612 72.7933 9.73588 72.4021 10.4205C72.0109 11.0888 71.8153 11.8875 71.8153 12.8167C71.8153 13.7295 72.0109 14.5363 72.4021 15.2373C72.7933 15.9219 73.3149 16.4516 73.967 16.8265C74.619 17.2015 75.3606 17.3889 76.192 17.3889Z" fill="#404040"/>
<path d="M26.9243 19.5161C25.3595 19.5161 23.9903 19.2227 22.8166 18.6359C21.6593 18.0328 20.7546 17.2178 20.1026 16.1908C19.4669 15.1476 19.149 13.9658 19.149 12.6455C19.149 11.3252 19.4588 10.1515 20.0782 9.12462C20.7139 8.08139 21.586 7.27452 22.6944 6.70401C23.8028 6.1172 25.0498 5.82379 26.4353 5.82379C27.7394 5.82379 28.9293 6.09275 30.0051 6.63066C31.0809 7.15227 31.9367 7.92654 32.5724 8.95347C33.2081 9.98039 33.526 11.2274 33.526 12.6944C33.526 12.8574 33.5178 13.0449 33.5015 13.2568C33.4852 13.4687 33.4689 13.6643 33.4526 13.8436H22.9633V11.3985H30.9831L29.2227 12.0831C29.239 11.48 29.1249 10.9584 28.8804 10.5183C28.6522 10.0782 28.3262 9.73588 27.9024 9.49138C27.4948 9.24687 27.014 9.12462 26.4598 9.12462C25.9056 9.12462 25.4165 9.24687 24.9927 9.49138C24.5852 9.73588 24.2674 10.0863 24.0392 10.5428C23.811 10.9829 23.6969 11.5045 23.6969 12.1076V12.8167C23.6969 13.4687 23.8273 14.031 24.0881 14.5037C24.3652 14.9765 24.7564 15.3432 25.2617 15.604C25.767 15.8485 26.3701 15.9708 27.071 15.9708C27.7231 15.9708 28.2773 15.8811 28.7337 15.7018C29.2064 15.5062 29.6709 15.2128 30.1274 14.8216L32.5724 17.3645C31.9367 18.0654 31.1543 18.6033 30.2252 18.9782C29.296 19.3368 28.1958 19.5161 26.9243 19.5161Z" fill="#404040"/>
<path d="M39.1211 19.2961L33.6686 6.04385H38.4364L42.7886 17.12H40.3925L44.9647 6.04385H49.3903L43.9134 19.2961H39.1211Z" fill="#404040"/>
<path fill-rule="evenodd" clip-rule="evenodd" d="M48.0049 13.8993L49.6718 19.2197H52.288L56.9695 4.62459L61.6281 19.2197H64.1954L69.9169 0.95813H67.5941L62.8751 15.8783L58.1561 0.95813H55.9067L51.1015 15.8101L49.4299 10.4512L48.0049 13.8993Z" fill="#404040"/>
<path d="M0 19.296V2.18063H8.09314C9.98399 2.18063 11.6466 2.53109 13.0811 3.23201C14.5155 3.93293 15.6321 4.9191 16.4308 6.19053C17.2458 7.46196 17.6533 8.97789 17.6533 10.7383C17.6533 12.4825 17.2458 13.9984 16.4308 15.2861C15.6321 16.5576 14.5155 17.5437 13.0811 18.2447C11.6466 18.9456 9.98399 19.296 8.09314 19.296H0ZM4.84121 15.4328H7.89754C8.87556 15.4328 9.72318 15.2535 10.4404 14.8949C11.1739 14.52 11.7444 13.9821 12.1519 13.2812C12.5594 12.564 12.7632 11.7164 12.7632 10.7383C12.7632 9.74401 12.5594 8.89639 12.1519 8.19548C11.7444 7.49456 11.1739 6.9648 10.4404 6.60619C9.72318 6.23128 8.87556 6.04382 7.89754 6.04382H4.84121V15.4328Z" fill="#404040"/>
<path d="M76.4335 33.0296C75.8222 33.0296 75.2761 32.8911 74.7953 32.6139C74.3226 32.3368 73.9436 31.9538 73.6583 31.4648C73.3812 30.9758 73.2427 30.4175 73.2427 29.7899C73.2427 29.1542 73.3812 28.5959 73.6583 28.115C73.9436 27.626 74.3226 27.243 74.7953 26.9659C75.2761 26.6888 75.8222 26.5502 76.4335 26.5502C77.0447 26.5502 77.5908 26.6888 78.0717 26.9659C78.5525 27.243 78.9315 27.626 79.2086 28.115C79.4857 28.5959 79.6243 29.1542 79.6243 29.7899C79.6243 30.4175 79.4857 30.9758 79.2086 31.4648C78.9315 31.9538 78.5525 32.3368 78.0717 32.6139C77.5908 32.8911 77.0447 33.0296 76.4335 33.0296ZM76.4335 32.4795C76.9225 32.4795 77.3626 32.3694 77.7538 32.1494C78.145 31.9212 78.4506 31.6033 78.6707 31.1958C78.8908 30.7883 79.0008 30.3197 79.0008 29.7899C79.0008 29.252 78.8908 28.7834 78.6707 28.384C78.4506 27.9765 78.145 27.6627 77.7538 27.4426C77.3626 27.2144 76.9225 27.1003 76.4335 27.1003C75.9445 27.1003 75.5044 27.2144 75.1131 27.4426C74.7301 27.6627 74.4245 27.9765 74.1962 28.384C73.9762 28.7834 73.8662 29.252 73.8662 29.7899C73.8662 30.3197 73.9762 30.7883 74.1962 31.1958C74.4245 31.6033 74.7301 31.9212 75.1131 32.1494C75.5044 32.3694 75.9445 32.4795 76.4335 32.4795Z" fill="#505F92"/>
<path d="M70.7519 32.9807V26.5991H71.3631V32.9807H70.7519ZM71.0575 25.0465C70.919 25.0465 70.8008 24.9976 70.703 24.8998C70.6052 24.802 70.5563 24.6879 70.5563 24.5575C70.5563 24.419 70.6052 24.3008 70.703 24.203C70.8008 24.1052 70.919 24.0563 71.0575 24.0563C71.2042 24.0563 71.3224 24.1052 71.412 24.203C71.5098 24.2926 71.5587 24.4067 71.5587 24.5453C71.5587 24.6838 71.5098 24.802 71.412 24.8998C71.3224 24.9976 71.2042 25.0465 71.0575 25.0465Z" fill="#505F92"/>
<path d="M64.9594 33.0296C64.3645 33.0296 63.8265 32.8952 63.3457 32.6262C62.873 32.3491 62.4981 31.966 62.221 31.477C61.9439 30.988 61.8053 30.4257 61.8053 29.7899C61.8053 29.1461 61.9439 28.5837 62.221 28.1028C62.4981 27.6138 62.873 27.2349 63.3457 26.9659C63.8265 26.6888 64.3645 26.5502 64.9594 26.5502C65.5218 26.5502 66.0271 26.6806 66.4754 26.9414C66.9318 27.2023 67.2904 27.5731 67.5512 28.0539C67.8201 28.5348 67.9546 29.1135 67.9546 29.7899C67.9546 30.4501 67.8242 31.0247 67.5634 31.5137C67.3026 32.0027 66.944 32.3776 66.4876 32.6384C66.0393 32.8992 65.5299 33.0296 64.9594 33.0296ZM64.9961 32.4795C65.4851 32.4795 65.9211 32.3695 66.3042 32.1494C66.6954 31.9212 67.001 31.6034 67.2211 31.1958C67.4493 30.7883 67.5634 30.3197 67.5634 29.7899C67.5634 29.252 67.4493 28.7834 67.2211 28.384C67.001 27.9765 66.6954 27.6627 66.3042 27.4427C65.9211 27.2145 65.4851 27.1004 64.9961 27.1004C64.5071 27.1004 64.067 27.2145 63.6758 27.4427C63.2927 27.6627 62.9871 27.9765 62.7589 28.384C62.5388 28.7834 62.4288 29.252 62.4288 29.7899C62.4288 30.3197 62.5388 30.7883 62.7589 31.1958C62.9871 31.6034 63.2927 31.9212 63.6758 32.1494C64.067 32.3695 64.5071 32.4795 64.9961 32.4795ZM67.5756 32.9807V30.8902L67.6857 29.7777L67.5634 28.6652V23.9096H68.1747V32.9807H67.5756Z" fill="#505F92"/>
<path d="M56.916 33.0296C56.3699 33.0296 55.8972 32.9318 55.4978 32.7362C55.0985 32.5325 54.7888 32.2309 54.5687 31.8315C54.3568 31.424 54.2509 30.9228 54.2509 30.3278V26.5991H54.8621V30.2789C54.8621 30.9961 55.0455 31.5422 55.4123 31.9171C55.779 32.292 56.2966 32.4795 56.9649 32.4795C57.4457 32.4795 57.8614 32.3776 58.2118 32.1739C58.5623 31.9701 58.8313 31.6848 59.0187 31.3181C59.2062 30.9432 59.2999 30.5031 59.2999 29.9978V26.5991H59.9112V32.9807H59.3244V31.2081L59.4099 31.4159C59.2225 31.913 58.9087 32.3083 58.4686 32.6017C58.0366 32.887 57.5191 33.0296 56.916 33.0296Z" fill="#505F92"/>
<path d="M51.3114 33.0296C50.749 33.0296 50.317 32.8748 50.0155 32.5651C49.7221 32.2554 49.5754 31.8316 49.5754 31.2936V25.2054H50.1866V31.2325C50.1866 31.64 50.2885 31.9538 50.4923 32.1739C50.696 32.3939 50.9894 32.5039 51.3725 32.5039C51.7718 32.5039 52.1019 32.3858 52.3627 32.1494L52.6195 32.5773C52.4565 32.7321 52.2568 32.8463 52.0204 32.9196C51.7922 32.993 51.5559 33.0296 51.3114 33.0296ZM48.4017 27.1248V26.5991H52.216V27.1248H48.4017Z" fill="#505F92"/>
<path d="M44.4484 33.0419C43.8127 33.0419 43.2096 32.9359 42.639 32.724C42.0767 32.5039 41.6406 32.2228 41.3309 31.8805L41.6121 31.4159C41.9055 31.7175 42.3049 31.9742 42.8102 32.1861C43.3237 32.3898 43.8656 32.4917 44.4362 32.4917C45.0067 32.4917 45.4712 32.4184 45.8298 32.2717C46.1966 32.1168 46.4656 31.9131 46.6367 31.6604C46.816 31.4077 46.9057 31.1266 46.9057 30.8169C46.9057 30.4501 46.8079 30.1567 46.6123 29.9366C46.4167 29.7166 46.1599 29.5414 45.8421 29.411C45.5242 29.2805 45.1778 29.1705 44.8029 29.0809C44.428 28.9912 44.049 28.8975 43.666 28.7997C43.2829 28.6937 42.9324 28.5593 42.6146 28.3963C42.2967 28.2332 42.04 28.0132 41.8444 27.7361C41.6569 27.4508 41.5632 27.0841 41.5632 26.6358C41.5632 26.2283 41.6692 25.8534 41.8811 25.5111C42.093 25.1688 42.4231 24.8917 42.8713 24.6798C43.3196 24.4679 43.8942 24.3619 44.5951 24.3619C45.0678 24.3619 45.5324 24.4312 45.9888 24.5697C46.4533 24.7083 46.8486 24.8957 47.1746 25.1321L46.9423 25.6333C46.5837 25.3888 46.1966 25.2095 45.7809 25.0954C45.3734 24.9732 44.9781 24.912 44.5951 24.912C44.049 24.912 43.5967 24.9895 43.2381 25.1443C42.8795 25.2992 42.6146 25.507 42.4434 25.7678C42.2723 26.0205 42.1867 26.3057 42.1867 26.6236C42.1867 26.9903 42.2804 27.2838 42.4679 27.5038C42.6635 27.7239 42.9202 27.8991 43.2381 28.0295C43.5559 28.1599 43.9064 28.2699 44.2895 28.3596C44.6725 28.4492 45.0515 28.547 45.4264 28.653C45.8013 28.7508 46.1477 28.8812 46.4656 29.0442C46.7834 29.2072 47.0401 29.4273 47.2357 29.7044C47.4314 29.9815 47.5292 30.3401 47.5292 30.7802C47.5292 31.1795 47.4191 31.5545 47.1991 31.9049C46.979 32.2472 46.6408 32.5243 46.1844 32.7362C45.7361 32.94 45.1574 33.0419 44.4484 33.0419Z" fill="#505F92"/>
</svg>
