<svg width="160" height="161" viewBox="0 0 160 161" fill="none" xmlns="http://www.w3.org/2000/svg">
<rect y="0.639648" width="160" height="160" rx="20" fill="url(#paint0_linear_639_155)" fill-opacity="0.75"/>
<path d="M52.7598 107.88C52.7598 100.358 58.8578 94.2598 66.3799 94.2598H80V107.88C80 115.402 73.902 121.5 66.3799 121.5C58.8578 121.5 52.7598 115.402 52.7598 107.88Z" fill="#24CB71"/>
<path d="M80 39.7793V67.0195H93.6201C101.142 67.0195 107.24 60.9215 107.24 53.3994C107.24 45.8773 101.142 39.7793 93.6201 39.7793H80Z" fill="#FF7237"/>
<path d="M93.5066 94.2598C101.029 94.2598 107.127 88.1618 107.127 80.6396C107.127 73.1175 101.029 67.0195 93.5066 67.0195C85.9844 67.0195 79.8865 73.1175 79.8865 80.6396C79.8865 88.1618 85.9844 94.2598 93.5066 94.2598Z" fill="#00B6FF"/>
<path d="M52.7598 53.3994C52.7598 60.9215 58.8578 67.0195 66.3799 67.0195H80V39.7793H66.3799C58.8578 39.7793 52.7598 45.8773 52.7598 53.3994Z" fill="#FF3737"/>
<path d="M52.7598 80.6396C52.7598 88.1618 58.8578 94.2598 66.3799 94.2598H80V67.0195H66.3799C58.8578 67.0195 52.7598 73.1175 52.7598 80.6396Z" fill="#874FFF"/>
<defs>
<linearGradient id="paint0_linear_639_155" x1="80" y1="-172.8" x2="80" y2="160.64" gradientUnits="userSpaceOnUse">
<stop stop-color="#1E48DB"/>
<stop offset="1" stop-color="#DEE5FF"/>
</linearGradient>
</defs>
</svg>
