<svg width="354" height="231" viewBox="0 0 354 231" fill="none" xmlns="http://www.w3.org/2000/svg">
<path d="M0 152.026V0.675505H71.6204C88.3535 0.675505 103.067 3.77458 115.761 9.97274C128.455 16.1709 138.336 24.8915 145.405 36.1347C152.617 47.3778 156.223 60.7831 156.223 76.3506C156.223 91.7739 152.617 105.179 145.405 116.566C138.336 127.81 128.455 136.53 115.761 142.728C103.067 148.927 88.3535 152.026 71.6204 152.026H0ZM42.8424 117.864H69.8894C78.5445 117.864 86.0455 116.278 92.3925 113.107C98.8838 109.792 103.933 105.035 107.539 98.8369C111.145 92.4946 112.948 84.9992 112.948 76.3506C112.948 67.5579 111.145 60.0624 107.539 53.8643C103.933 47.6661 98.8838 42.9815 92.3925 39.8103C86.0455 36.495 78.5445 34.8374 69.8894 34.8374H42.8424V117.864Z" fill="#404040"/>
<path d="M160.592 108.756L174.841 151.35H197.993L239.422 30.3874L280.649 151.35H303.368L354 0H333.444L291.684 123.657L249.923 0H230.017L187.493 123.092L166.187 59.1211H165.527C166.624 64.5353 167.173 70.2785 167.173 76.3506C167.173 88.3801 164.979 99.1819 160.592 108.756Z" fill="#404040"/>
<path d="M19.1289 231C15.2281 231 11.5274 230.377 8.02664 229.131C4.57593 227.836 1.90039 226.183 0 224.17L1.72535 221.437C3.52572 223.211 5.97622 224.721 9.07685 225.967C12.2275 227.165 15.5532 227.765 19.0539 227.765C22.5546 227.765 25.4052 227.333 27.6056 226.47C29.8561 225.56 31.5064 224.361 32.5566 222.875C33.6569 221.389 34.207 219.736 34.207 217.914C34.207 215.757 33.6069 214.032 32.4066 212.738C31.2064 211.443 29.6311 210.413 27.6807 209.646C25.7303 208.879 23.6048 208.232 21.3043 207.705C19.0039 207.177 16.6784 206.626 14.3279 206.051C11.9774 205.428 9.82701 204.637 7.87661 203.678C5.92621 202.72 4.35089 201.426 3.15064 199.796C2.00041 198.118 1.42529 195.961 1.42529 193.325C1.42529 190.928 2.07542 188.723 3.37569 186.71C4.67595 184.697 6.70137 183.067 9.45193 181.821C12.2025 180.575 15.7282 179.952 20.0291 179.952C22.9297 179.952 25.7803 180.359 28.5808 181.174C31.4314 181.989 33.8569 183.091 35.8573 184.481L34.432 187.429C32.2316 185.991 29.8561 184.937 27.3056 184.266C24.8051 183.547 22.3796 183.187 20.0291 183.187C16.6784 183.187 13.9028 183.642 11.7024 184.553C9.50194 185.464 7.87661 186.686 6.82639 188.22C5.77618 189.706 5.25107 191.384 5.25107 193.253C5.25107 195.41 5.82619 197.136 6.97642 198.43C8.17667 199.724 9.75199 200.754 11.7024 201.521C13.6528 202.288 15.8032 202.935 18.1537 203.463C20.5042 203.99 22.8297 204.565 25.1301 205.188C27.4306 205.763 29.556 206.53 31.5064 207.489C33.4568 208.448 35.0322 209.742 36.2324 211.372C37.4326 213.001 38.0328 215.11 38.0328 217.699C38.0328 220.047 37.3576 222.252 36.0074 224.313C34.6571 226.327 32.5816 227.956 29.7811 229.203C27.0305 230.401 23.4798 231 19.1289 231Z" fill="#404040"/>
<path d="M88.0047 231C84.554 231 81.9035 230.089 80.0531 228.268C78.2527 226.446 77.3525 223.954 77.3525 220.79V184.985H81.1033V220.431C81.1033 222.827 81.7284 224.673 82.9787 225.967C84.2289 227.261 86.0293 227.908 88.3798 227.908C90.8303 227.908 92.8557 227.213 94.456 225.823L96.0314 228.34C95.0312 229.25 93.8059 229.922 92.3556 230.353C90.9553 230.784 89.505 231 88.0047 231ZM70.1511 196.273V193.181H93.5558V196.273H70.1511Z" fill="#404040"/>
<path d="M144.503 231C141.152 231 138.252 230.425 135.801 229.274C133.351 228.076 131.45 226.303 130.1 223.954C128.8 221.557 128.15 218.609 128.15 215.11V193.181H131.9V214.823C131.9 219.041 133.026 222.252 135.276 224.457C137.527 226.662 140.702 227.765 144.803 227.765C147.754 227.765 150.304 227.165 152.455 225.967C154.605 224.769 156.255 223.091 157.406 220.934C158.556 218.729 159.131 216.141 159.131 213.169V193.181H162.882V230.712H159.281V220.287L159.806 221.509C158.656 224.433 156.73 226.758 154.03 228.484C151.379 230.161 148.204 231 144.503 231Z" fill="#404040"/>
<path d="M214.354 231C210.703 231 207.403 230.209 204.452 228.627C201.551 226.998 199.251 224.745 197.551 221.869C195.85 218.993 195 215.686 195 211.947C195 208.16 195.85 204.853 197.551 202.025C199.251 199.149 201.551 196.92 204.452 195.338C207.403 193.708 210.703 192.893 214.354 192.893C217.805 192.893 220.905 193.66 223.656 195.194C226.456 196.728 228.657 198.909 230.257 201.737C231.908 204.565 232.733 207.968 232.733 211.947C232.733 215.829 231.933 219.209 230.332 222.085C228.732 224.96 226.531 227.165 223.731 228.699C220.98 230.233 217.855 231 214.354 231ZM214.579 227.765C217.58 227.765 220.255 227.117 222.606 225.823C225.006 224.481 226.882 222.612 228.232 220.215C229.632 217.818 230.332 215.062 230.332 211.947C230.332 208.783 229.632 206.027 228.232 203.678C226.882 201.282 225.006 199.436 222.606 198.142C220.255 196.8 217.58 196.129 214.579 196.129C211.578 196.129 208.878 196.8 206.477 198.142C204.127 199.436 202.252 201.282 200.851 203.678C199.501 206.027 198.826 208.783 198.826 211.947C198.826 215.062 199.501 217.818 200.851 220.215C202.252 222.612 204.127 224.481 206.477 225.823C208.878 227.117 211.578 227.765 214.579 227.765ZM230.407 230.712V218.418L231.082 211.875L230.332 205.332V177.363H234.083V230.712H230.407Z" fill="#404040"/>
<path d="M267.402 231V193.469H271.152V231H267.402ZM269.277 184.337C268.427 184.337 267.702 184.05 267.102 183.475C266.501 182.9 266.201 182.228 266.201 181.462C266.201 180.647 266.501 179.952 267.102 179.376C267.702 178.801 268.427 178.514 269.277 178.514C270.177 178.514 270.902 178.801 271.452 179.376C272.053 179.904 272.353 180.575 272.353 181.39C272.353 182.204 272.053 182.9 271.452 183.475C270.902 184.05 270.177 184.337 269.277 184.337Z" fill="#404040"/>
<path d="M324.05 231C320.299 231 316.948 230.185 313.998 228.555C311.097 226.926 308.772 224.673 307.021 221.797C305.321 218.921 304.471 215.638 304.471 211.947C304.471 208.208 305.321 204.925 307.021 202.097C308.772 199.221 311.097 196.968 313.998 195.338C316.948 193.708 320.299 192.893 324.05 192.893C327.801 192.893 331.151 193.708 334.102 195.338C337.053 196.968 339.378 199.221 341.078 202.097C342.779 204.925 343.629 208.208 343.629 211.947C343.629 215.638 342.779 218.921 341.078 221.797C339.378 224.673 337.053 226.926 334.102 228.555C331.151 230.185 327.801 231 324.05 231ZM324.05 227.765C327.05 227.765 329.751 227.117 332.152 225.823C334.552 224.481 336.427 222.612 337.778 220.215C339.128 217.818 339.803 215.062 339.803 211.947C339.803 208.783 339.128 206.027 337.778 203.678C336.427 201.282 334.552 199.436 332.152 198.142C329.751 196.8 327.05 196.129 324.05 196.129C321.049 196.129 318.349 196.8 315.948 198.142C313.598 199.436 311.722 201.282 310.322 203.678C308.972 206.027 308.297 208.783 308.297 211.947C308.297 215.062 308.972 217.818 310.322 220.215C311.722 222.612 313.598 224.481 315.948 225.823C318.349 227.117 321.049 227.765 324.05 227.765Z" fill="#404040"/>
</svg>
