<svg width="140" height="146" viewBox="0 0 140 146" fill="none" xmlns="http://www.w3.org/2000/svg">
<path d="M28.7874 94.7589C25.8796 84.1453 28.0895 56.521 60.1918 30.9322C58.3309 25.0003 61.6457 22.4511 63.5358 21.918L58.1564 8.542C54.5507 3.77318 57.2355 1.32092 59.0287 0.690899C61.7911 0.254718 63.8835 3.67616 66.2982 1.56325C68.6245 -0.472237 71.8716 0.0124093 73.277 0.690899C75.1671 1.70863 76.0394 3.88951 79.5288 1.56325C83.0182 -0.763006 85.3445 0.0124093 86.0714 0.690899C89.4154 3.30793 92.5171 2.19328 93.341 1.56325C94.4556 0.836295 96.7431 0.400122 96.9757 4.47107C97.2084 8.54202 92.1294 17.5078 89.5608 21.4818C92.8176 25.2038 92.2748 28.4606 91.5963 29.6237C99.5443 35.3424 116.778 50.2983 122.128 64.3721C125.327 71.7871 132.015 91.1241 118.93 109.298C112.096 117.101 92.7594 129.943 73.277 128.49C60.9188 127.181 36.3477 116.975 28.7874 94.7589Z" fill="url(#paint0_linear_639_137)" fill-opacity="0.75"/>
<path d="M9.08694 83.4183H11.1951C15.0494 83.4183 18.1739 86.5428 18.1739 90.3971C23.2718 89.8509 35.8253 90.9206 47.3546 99.0508C48.8411 100.099 50.5313 100.846 52.3346 101.084L78.2204 104.5C82.4852 105.033 90.5204 109.036 88.5431 120.784L129.398 103.628C131.627 102.755 135.504 102.319 137.976 105.663C139.261 107.131 141.501 111.163 138.528 114.426C138.182 114.806 137.759 115.107 137.326 115.385L92.1779 144.337C89.997 145.646 84.4722 145.21 77.0572 145.21H49.5783C40.7095 145.064 24.8037 137.562 18.1739 133.724C18.1739 137.578 15.0494 140.702 11.1951 140.702H9.08693C4.06836 140.702 0 136.634 0 131.615V92.5053C0 87.4867 4.06836 83.4183 9.08694 83.4183Z" fill="url(#paint1_linear_639_137)"/>
<path d="M75.4636 56.8118H78.9239V62.0458C84.9141 62.5402 89.8283 65.7678 89.8283 71.2346V71.8161H84.885V71.3799C84.885 68.4721 82.1516 66.9019 78.9239 66.5239V75.8289C85.1758 76.992 90.4098 79.0275 90.4098 84.8722C90.4098 90.4262 85.3211 93.4212 78.9239 93.8574V99.7021H75.4636V93.8574C68.9792 93.3631 64.2976 90.2226 64.2976 84.8722V83.9708H69.27V84.6105C69.27 87.3148 71.5672 88.9432 75.4636 89.3503V79.6963C69.648 78.5623 64.7629 76.2651 64.7629 70.7984C64.7629 65.6515 69.3572 62.5692 75.4636 62.0749V56.8118ZM69.648 70.5948C69.648 73.0956 71.8289 74.2587 75.4636 75.102V66.5239C72.4395 66.8437 69.648 68.0069 69.648 70.5948ZM85.5247 85.1339C85.5247 82.4006 83.3148 81.2665 78.9239 80.336V89.3793C82.7623 89.1176 85.5247 87.751 85.5247 85.1339Z" fill="url(#paint2_linear_639_137)" fill-opacity="0.75"/>
<defs>
<linearGradient id="paint0_linear_639_137" x1="77.2781" y1="0" x2="77.2781" y2="128.603" gradientUnits="userSpaceOnUse">
<stop stop-color="#6580E0"/>
<stop offset="1" stop-color="#E0E7FF"/>
</linearGradient>
<linearGradient id="paint1_linear_639_137" x1="69.2061" y1="45.9075" x2="70" y2="145.279" gradientUnits="userSpaceOnUse">
<stop stop-color="#6580E0"/>
<stop offset="1" stop-color="#E0E7FF"/>
</linearGradient>
<linearGradient id="paint2_linear_639_137" x1="78.075" y1="103.482" x2="77.4843" y2="18.4905" gradientUnits="userSpaceOnUse">
<stop stop-color="#6580E0"/>
<stop offset="1" stop-color="#E0E7FF"/>
</linearGradient>
</defs>
</svg>
