<svg width="300" height="157" viewBox="0 0 300 157" fill="none" xmlns="http://www.w3.org/2000/svg">
<rect x="46.2485" y="0.445435" width="175.087" height="123.666" rx="15" fill="url(#paint0_radial_662_90)"/>
<rect x="46.2485" y="99.8882" width="175.087" height="24.2232" rx="12.1116" fill="url(#paint1_linear_662_90)" fill-opacity="0.75"/>
<rect x="54.3228" y="9.79468" width="155.114" height="39.0971" rx="12" fill="#A0B5FF"/>
<rect x="54.3228" y="55.6914" width="40.372" height="34.4225" rx="12" fill="#A0B5FF"/>
<rect x="102.769" y="55.6914" width="106.667" height="7.64944" rx="3.82472" fill="#A0B5FF"/>
<rect x="102.769" y="69.7155" width="106.667" height="7.64944" rx="3.82472" fill="#A0B5FF"/>
<rect x="102.769" y="82.4644" width="106.667" height="7.64944" rx="3.82472" fill="#A0B5FF"/>
<ellipse cx="133.579" cy="112" rx="5.31211" ry="5.31211" transform="rotate(-180 133.579 112)" fill="url(#paint2_radial_662_90)"/>
<rect x="198.387" y="48.8918" width="76.6128" height="107.942" rx="10" fill="url(#paint3_linear_662_90)"/>
<path d="M198.387 139.41H275V146.834C275 152.357 270.523 156.834 265 156.834H208.387C202.864 156.834 198.387 152.357 198.387 146.834V139.41Z" fill="url(#paint4_linear_662_90)" fill-opacity="0.75"/>
<rect x="204.954" y="53.9915" width="64.0264" height="35.6974" rx="12" fill="#CBD6FF"/>
<rect x="204.954" y="96.4885" width="64.0264" height="7.64944" rx="3.82472" fill="#E0E7FF"/>
<rect x="204.954" y="110.512" width="64.0264" height="7.64944" rx="3.82472" fill="#E0E7FF"/>
<rect x="204.954" y="123.261" width="64.0264" height="7.64944" rx="3.82472" fill="#E0E7FF"/>
<ellipse cx="236.635" cy="148.335" rx="4.24969" ry="4.24969" transform="rotate(-180 236.635 148.335)" fill="url(#paint5_linear_662_90)" fill-opacity="0.75"/>
<rect x="25" y="77.3647" width="43.7718" height="79.4692" rx="8" fill="url(#paint6_linear_662_90)"/>
<path d="M25 144.006H68.7718V148.834C68.7718 153.252 65.1901 156.834 60.7718 156.834H33C28.5817 156.834 25 153.252 25 148.834V144.006Z" fill="url(#paint7_linear_662_90)"/>
<rect x="28.7517" y="81.1193" width="36.5807" height="26.2811" rx="8" fill="#CBD6FF"/>
<rect x="28.7517" y="112.406" width="36.5807" height="5.63167" rx="2.81584" fill="#E2E8FF"/>
<rect x="28.7517" y="122.731" width="36.5807" height="5.63167" rx="2.81584" fill="#E2E8FF"/>
<rect x="28.7517" y="132.117" width="36.5807" height="5.63167" rx="2.81584" fill="#E2E8FF"/>
<ellipse cx="46.8861" cy="150.672" rx="2.7623" ry="2.7623" transform="rotate(-180 46.8861 150.672)" fill="url(#paint8_radial_662_90)"/>
<path d="M154.403 124.111H112.756C114.796 133.165 108.931 144.033 105.744 148.335H160.99C154.531 140.075 153.907 128.744 154.403 124.111Z" fill="url(#paint9_linear_662_90)" fill-opacity="0.75"/>
<rect x="90.4451" y="148.335" width="86.2687" height="8.49938" rx="4.24969" fill="url(#paint10_linear_662_90)" fill-opacity="0.75"/>
<defs>
<radialGradient id="paint0_radial_662_90" cx="0" cy="0" r="1" gradientUnits="userSpaceOnUse" gradientTransform="translate(43.2392 62.2784) rotate(90.1449) scale(54.104 75.4314)">
<stop stop-color="#A0B5FF"/>
<stop offset="1" stop-color="#E2E8FF"/>
</radialGradient>
<linearGradient id="paint1_linear_662_90" x1="133.792" y1="73.6303" x2="133.792" y2="124.111" gradientUnits="userSpaceOnUse">
<stop offset="0.360577" stop-color="#5773D9"/>
<stop offset="1" stop-color="#DEE5FF"/>
</linearGradient>
<radialGradient id="paint2_radial_662_90" cx="0" cy="0" r="1" gradientUnits="userSpaceOnUse" gradientTransform="translate(128.085 112) rotate(90.1023) scale(4.6481 4.57716)">
<stop stop-color="#A0B5FF"/>
<stop offset="1" stop-color="#E2E8FF"/>
</radialGradient>
<linearGradient id="paint3_linear_662_90" x1="236.694" y1="-68.1172" x2="236.694" y2="156.834" gradientUnits="userSpaceOnUse">
<stop stop-color="#1E48DB"/>
<stop offset="1" stop-color="#DEE5FF"/>
</linearGradient>
<linearGradient id="paint4_linear_662_90" x1="236.694" y1="120.523" x2="236.694" y2="156.834" gradientUnits="userSpaceOnUse">
<stop offset="0.360577" stop-color="#5773D9"/>
<stop offset="1" stop-color="#DEE5FF"/>
</linearGradient>
<linearGradient id="paint5_linear_662_90" x1="236.635" y1="134.872" x2="236.635" y2="152.584" gradientUnits="userSpaceOnUse">
<stop stop-color="#1E48DB"/>
<stop offset="0.850962" stop-color="#DEE5FF"/>
</linearGradient>
<linearGradient id="paint6_linear_662_90" x1="46.8859" y1="-8.77968" x2="46.8859" y2="156.834" gradientUnits="userSpaceOnUse">
<stop stop-color="#1E48DB"/>
<stop offset="1" stop-color="#DEE5FF"/>
</linearGradient>
<linearGradient id="paint7_linear_662_90" x1="46.8859" y1="130.101" x2="46.8859" y2="156.834" gradientUnits="userSpaceOnUse">
<stop offset="0.360577" stop-color="#5773D9"/>
<stop offset="1" stop-color="#DEE5FF"/>
</linearGradient>
<radialGradient id="paint8_radial_662_90" cx="0" cy="0" r="1" gradientUnits="userSpaceOnUse" gradientTransform="translate(44.0289 150.672) rotate(90.1023) scale(2.41701 2.38012)">
<stop stop-color="#A0B5FF"/>
<stop offset="1" stop-color="#E2E8FF"/>
</radialGradient>
<linearGradient id="paint9_linear_662_90" x1="133.367" y1="97.8534" x2="133.367" y2="148.335" gradientUnits="userSpaceOnUse">
<stop offset="0.360577" stop-color="#5773D9"/>
<stop offset="1" stop-color="#DEE5FF"/>
</linearGradient>
<linearGradient id="paint10_linear_662_90" x1="133.579" y1="139.121" x2="133.579" y2="156.834" gradientUnits="userSpaceOnUse">
<stop offset="0.360577" stop-color="#5773D9"/>
<stop offset="1" stop-color="#DEE5FF"/>
</linearGradient>
</defs>
</svg>
