<svg width="105" height="105" viewBox="0 0 105 105" fill="none" xmlns="http://www.w3.org/2000/svg">
<path d="M17.5381 79.1669L23.5414 73.1636C24.7835 75.1302 29.4412 79.8914 31.9253 81.651L26.0255 87.5508L17.5381 79.1669Z" fill="#A0B5FF"/>
<path d="M27.6815 88.3789L16.8134 77.7179L1.28765 94.1752C0.252583 95.2103 0.231894 98.833 2.63322 102.145C5.03454 105.457 10.1891 105.147 11.9487 103.905L27.6815 88.3789Z" fill="url(#paint0_radial_703_37)"/>
<circle cx="59.6646" cy="45.8382" r="22.8353" stroke="url(#paint1_radial_703_37)" stroke-width="45"/>
<circle cx="59.6646" cy="45.8382" r="36.0198" fill="#A0B5FF"/>
<path d="M71.8589 53.3693C67.9166 53.3693 64.8123 50.3792 64.8123 46.2274C64.8123 42.0756 67.9166 39.1237 71.8589 39.1237C75.8202 39.1237 78.9246 42.0756 78.9246 46.2274C78.9246 50.3792 75.8202 53.3693 71.8589 53.3693ZM71.8589 50.1507C74.011 50.1507 75.2108 48.3795 75.2108 46.2274C75.2108 44.0753 74.011 42.3423 71.8589 42.3423C69.7068 42.3423 68.507 44.0753 68.507 46.2274C68.507 48.3795 69.7068 50.1507 71.8589 50.1507Z" fill="#E0E7FF"/>
<path d="M63.5516 49.9602V53.0836H53.8767V39.4093H63.4182V42.5327H57.4762V44.4943H62.8659V47.6177H57.4762V49.9602H63.5516Z" fill="#E0E7FF"/>
<path d="M52.0315 48.6079C52.0315 51.4266 49.7842 53.2739 46.2228 53.2739C42.6614 53.2739 40.376 51.3885 40.1284 48.3603H43.766C43.8041 49.6554 44.6611 50.4743 46.1466 50.4743C47.3845 50.4743 48.2035 49.9982 48.2035 49.1412C48.2035 48.5508 47.6131 48.1127 46.8132 47.9604L44.3183 47.4843C42.1281 47.0653 40.6807 45.7893 40.6807 43.58C40.6807 41.028 42.928 39.2378 45.9943 39.2378C49.251 39.2378 51.5935 41.1042 51.803 44.0562H48.1654C48.0702 42.8182 47.2322 42.0184 46.0324 42.0184C44.9658 42.0184 44.3183 42.5897 44.3183 43.3325C44.3183 43.9419 44.9277 44.3038 45.6515 44.4371L48.2987 44.9513C50.7365 45.4274 52.0315 46.6272 52.0315 48.6079Z" fill="#E0E7FF"/>
<defs>
<radialGradient id="paint0_radial_703_37" cx="0" cy="0" r="1" gradientUnits="userSpaceOnUse" gradientTransform="translate(0.157483 91.2477) rotate(90.1023) scale(11.8386 11.6576)">
<stop stop-color="#A0B5FF"/>
<stop offset="1" stop-color="#E2E8FF"/>
</radialGradient>
<radialGradient id="paint1_radial_703_37" cx="0" cy="0" r="1" gradientUnits="userSpaceOnUse" gradientTransform="translate(12.7709 45.8382) rotate(90.1023) scale(39.6684 39.063)">
<stop stop-color="#A0B5FF"/>
<stop offset="1" stop-color="#E2E8FF"/>
</radialGradient>
</defs>
</svg>
